<?xml version="1.0" standalone="no"?>
<!DOCTYPE svg PUBLIC "-//W3C//DTD SVG 1.1//EN" "http://www.w3.org/Graphics/SVG/1.1/DTD/svg11.dtd" >
<svg>
<metadata>
Created by FontForge 20110222 at Mon Mar  7 13:22:57 2011
 By www-data
</metadata>
<defs>
<font id="ChessAlpha2" horiz-adv-x="2048" >
  <font-face 
    font-family="Chess Alpha 2"
    font-weight="400"
    font-stretch="normal"
    units-per-em="2048"
    panose-1="2 11 6 3 5 3 2 2 2 4"
    ascent="1627"
    descent="-421"
    x-height="1018"
    cap-height="1235"
    bbox="-9 -421 2048 1627"
    underline-thickness="60"
    underline-position="40"
    unicode-range="U+0020-2026"
  />
    <missing-glyph />
    <glyph glyph-name="ellipsis" unicode="&#x2e;&#x2e;&#x2e;" horiz-adv-x="1450" 
d="M1000 168h194v-168h-194v168zM500 168h193v-168h-193v168zM0 168h193v-168h-193v168z" />
    <glyph glyph-name="space" unicode=" " horiz-adv-x="1200" 
 />
    <glyph glyph-name="exclam" unicode="!" horiz-adv-x="500" 
d="M130 0q-96 0 -96 88q0 85 96 85q92 1 92 -82q0 -91 -92 -91zM-5 1415h264l-65 -1073h-133z" />
    <glyph glyph-name="quotedbl" unicode="&#x22;" 
d="M1966 -421h-82v2048h82v-2048zM1775 -421h-137v2048h137v-2048zM1072 266v-103h-579q0 38 13 74q23 61 71 118q44 52 140 132q143 117 193 186q51 68 51 129q0 65 -46 108q-47 45 -120 45q-75 0 -123 -47q-47 -47 -48 -130l-111 12q11 125 85 189q76 64 200 64t200 -70
q73 -69 73 -173q0 -53 -21 -103t-71 -107q-53 -60 -167 -155q-78 -65 -124 -110q-27 -28 -45 -59h429z" />
    <glyph glyph-name="numbersign" unicode="#" 
d="M117 -421l1931 1931v-58l-1873 -1873h-58zM410 -421l1638 1638v-58l-1580 -1580h-58zM703 -421l1345 1345v-58l-1287 -1287h-58zM995 -421l1053 1053v-58l-995 -995h-58zM1287 -421l761 761v-58l-703 -703h-58zM1580 -421l468 468v-58l-410 -410h-58zM1873 -421l175 175
v-58l-117 -117h-58zM1931 1627l-1931 -1931v58l1873 1873h58zM1638 1627l-1638 -1638v58l1580 1580h58zM1345 1627l-1345 -1345v58l1287 1287h58zM1053 1627l-1053 -1053v58l995 995h58zM761 1627l-761 -761v58l703 703h58zM468 1627l-468 -468v58l410 410h58zM175 1627
l-175 -175v58l117 117h58z" />
    <glyph glyph-name="dollar" unicode="$" 
d="M1966 -421h-82v2048h82v-2048zM1775 -421h-137v2048h137v-2048zM846 163v211h-382v98l402 571h89v-571h119v-98h-119v-211h-109zM846 472v397l-275 -397h275z" />
    <glyph glyph-name="percent" unicode="%" 
d="M1775 -421h-137v2048h137v-2048zM1966 -421h-82v2048h82v-2048zM490 407l114 10q12 -83 58 -124q47 -42 110 -42q78 0 132 59q54 58 54 156q0 91 -51 145q-51 53 -136 53q-54 0 -94.5 -24t-66.5 -61l-100 13l85 451h437v-103h-351l-48 -235q79 54 167 54q114 0 193 -79
t79 -204q0 -121 -69 -207q-85 -106 -231 -106q-120 0 -195 67q-77 68 -87 177z" />
    <glyph glyph-name="ampersand" unicode="&#x26;" 
d="M1775 -421h-137v2048h137v-2048zM1966 -421h-82v2048h82v-2048zM495 938v105h577v-85q-88 -95 -169 -241q-82 -148 -129 -308q-34 -117 -42 -246h-112q1 106 40 254q39 146 114 288q71 133 158 233h-437z" />
    <glyph glyph-name="quotesingle" unicode="'" 
 />
    <glyph glyph-name="parenleft" unicode="(" horiz-adv-x="700" 
d="M210 741q3 -549 268 -890l106 51q-181 244 -181 839q0 417 183 749l-108 59q-270 -275 -268 -808z" />
    <glyph glyph-name="parenright" unicode=")" horiz-adv-x="700" 
d="M471 741q-3 -549 -268 -890l-106 51q181 244 181 839q0 417 -183 749l108 59q270 -275 268 -808z" />
    <glyph glyph-name="asterisk" unicode="*" 
d="M1966 -421h-82v2048h82v-2048zM1775 -421h-137v2048h137v-2048zM667 645q-65 23 -97 68q-32 44 -32 107q0 93 68 159q66 64 180 64q110 0 181 -66q69 -64 69 -159q0 -57 -32 -105q-31 -45 -95 -68q78 -25 120 -83q42 -56 42 -138q0 -110 -78 -186q-79 -75 -206 -75
q-126 0 -205 75q-78 75 -78 189q0 85 42 141q39 54 121 77zM646 824q0 -60 40 -100q40 -38 102 -38q59 0 100 38q39 37 39 95t-41 97q-39 40 -99 40q-63 0 -101 -39q-40 -39 -40 -93zM612 427q0 -44 21 -88q21 -42 64 -66q42 -23 91 -23q77 0 126 49q49 50 49 124
q0 76 -51 126t-128 50q-76 0 -123 -49q-49 -51 -49 -123z" />
    <glyph glyph-name="plus" unicode="+" horiz-adv-x="1150" 
d="M0 742v-162h351l-1 -429h151v429h357v162h-357v409h-151l1 -409h-351z" />
    <glyph glyph-name="comma" unicode="," horiz-adv-x="500" 
d="M0 167h195l-106 -371h-89v371z" />
    <glyph glyph-name="hyphen" unicode="-" horiz-adv-x="1150" 
d="M861 575v167h-861v-167h861z" />
    <glyph glyph-name="period" unicode="." horiz-adv-x="500" 
d="M0 168h193v-168h-193v168z" />
    <glyph glyph-name="slash" unicode="/" horiz-adv-x="1000" 
d="M565 1411h194l-566 -1411h-193z" />
    <glyph glyph-name="zero" unicode="0" horiz-adv-x="1200" 
d="M192 746q-1 494 284 493q283 0 283 -493q0 -576 -284 -576q-281 0 -283 576zM1 746q0 -746 474 -746q477 0 476 746q-1 669 -476 668q-474 0 -474 -668z" />
    <glyph glyph-name="one" unicode="1" horiz-adv-x="670" 
d="M277 0h193v1411h-98l-374 -374v-188l279 279v-1128z" />
    <glyph glyph-name="two" unicode="2" horiz-adv-x="1200" 
d="M953 0v173h-759q0 124 210 236q549 294 549 510q1 493 -505 493q-356 0 -448 -178l193 -83q55 83 267 83q299 0 299 -319q0 -120 -487 -410q-272 -162 -272 -426v-79h953z" />
    <glyph glyph-name="three" unicode="3" horiz-adv-x="1200" 
d="M102 1149l-100 133q122 130 424 129q444 0 444 -375q0 -280 -186 -294q263 -49 263 -326q0 -416 -489 -416q-330 0 -456 168l125 114q66 -119 327 -114q301 6 301 244q0 244 -349 253q-53 2 -136 1v175h140q306 0 308 199q1 194 -292 194q-253 0 -324 -85z" />
    <glyph glyph-name="four" unicode="4" horiz-adv-x="1200" 
d="M582 559h-396l396 486v-486zM0 384h573v-384h184v384l195 -1v176h-195l-1 850h-92l-664 -850v-175z" />
    <glyph glyph-name="five" unicode="5" horiz-adv-x="1200" 
d="M93 1416v-672q312 49 390 48q277 -1 277 -291q0 -329 -305 -329q-187 0 -355 100l-100 -163q191 -109 450 -109q502 0 502 487q0 473 -469 470q-137 -1 -199 -12l1 291h668v180h-860z" />
    <glyph glyph-name="six" unicode="6" horiz-adv-x="1200" 
d="M191 470q-9 278 285 274q283 -4 284 -257q-1 -318 -284 -318q-272 -1 -285 301zM0 491q0 -489 476 -491q477 -1 477 482q0 426 -477 430q-192 1 -286 -175q10 483 474 499h193v180h-193q-664 0 -664 -925z" />
    <glyph glyph-name="seven" unicode="7" horiz-adv-x="1200" 
d="M0 1234h760l-466 -1234h224l437 1234v178h-955v-178z" />
    <glyph glyph-name="eight" unicode="8" horiz-adv-x="1200" 
d="M476 681q285 -2 285 -248q0 -266 -285 -262q-284 3 -284 262q0 250 284 248zM733 1059q3 -206 -257 -205q-254 1 -254 206q0 180 254 180t257 -181zM31 1060q0 -223 161 -289q-192 -86 -191 -343q1 -428 465 -428q486 0 486 438q0 248 -191 333q158 89 163 288
q10 357 -448 357q-445 1 -445 -356z" />
    <glyph glyph-name="nine" unicode="9" horiz-adv-x="1200" 
d="M761 945q10 -278 -285 -274q-283 4 -284 257q2 317 284 318q273 1 285 -301zM953 923q0 490 -477 491q-476 2 -476 -481q0 -427 477 -430q192 -1 285 174q-10 -483 -474 -499h-192l-1 -180h193q665 0 665 925z" />
    <glyph glyph-name="colon" unicode=":" horiz-adv-x="450" 
d="M0 907h193v-164h-193v164zM0 167h194l-1 -167h-193v167z" />
    <glyph glyph-name="semicolon" unicode=";" horiz-adv-x="450" 
d="M0 903h193v-160h-193v160zM0 163h193l-97 -313h-96v313z" />
    <glyph glyph-name="less" unicode="&#x3c;" 
d="M0 -339v82h2048v-82h-2048zM0 -148v137h2048v-137h-2048z" />
    <glyph glyph-name="equal" unicode="=" horiz-adv-x="1200" 
d="M0 541h946v-161h-946v161zM0 907h946v-162h-946v162z" />
    <glyph glyph-name="greater" unicode="&#x3e;" horiz-adv-x="1450" 
d="M1000 168h194v-168h-194v168zM500 168h193v-168h-193v168zM0 168h193v-168h-193v168z" />
    <glyph glyph-name="question" unicode="?" horiz-adv-x="1040" 
d="M184 168v-168h194v168h-194zM0 1255q106 118 292 118q491 0 491 -378q0 -252 -313 -424q-103 -57 -103 -236h-168q-2 229 125 311q264 171 264 345q0 211 -300 214q-92 1 -177 -57z" />
    <glyph glyph-name="at" unicode="@" 
d="M951 125q13 49 96 91l71 37q69 35 81 47q11 11 30 53q15 -39 30 -53q10 -11 80 -47l71 -37q83 -42 97 -91q-103 -52 -278 -52q-177 0 -278 52zM996 911q120 -75 233 -75t233 75q-20 -32 -88 -106l-67 -73q-43 -48 -55 -68q-11 -23 -16 -72q-2 -21 -7 -49q-3 16 -5 28
t-3 21q-7 53 -16 72q-10 19 -54 68l-67 73q-66 70 -88 106zM911 1071v-77q0 -57 16 -86q14 -29 83 -102l91 -97q68 -76 68 -105q0 -32 -63 -99l-104 -112q-61 -65 -77 -98q-14 -33 -14 -97v-58q0 -53 38 -73q92 -50 280 -50q187 0 280 50q38 21 38 73v58q0 65 -15 97t-76 98
l-105 112q-63 67 -63 102q0 27 70 102l90 97q65 69 83 102q16 29 16 86v77q-111 -70 -318 -70q-103 0 -183 17q-79 17 -135 53zM1229 1040q112 0 205 25q94 25 93 54q-2 30 -87 50q-88 20 -211 20q-126 0 -213 -20q-85 -21 -85 -51t94 -53q92 -25 204 -25zM871 127v61
q0 77 20 124q18 42 82 111l106 113q51 52 51 69t-62 81l-106 109q-54 53 -72 102q-19 45 -19 129v66q0 67 90 102q89 35 268 35q357 0 357 -137v-66q0 -83 -18 -129q-18 -47 -72 -102l-106 -109q-61 -63 -61 -81t50 -69l106 -113q61 -66 81 -111q20 -43 20 -124v-61
q0 -75 -91 -112q-92 -38 -266 -38q-175 0 -267 38q-91 37 -91 112zM164 -421h-82v2048h82v-2048zM410 -421h-137v2048h137v-2048z" />
    <glyph glyph-name="A" unicode="A" 
d="M1190 331q-63 -25 -196 -46q-71 -10 -104 -23q-31 -14 -47 -39q-16 -27 -16 -56q0 -48 36 -80q37 -32 106 -32t123 31q52 28 79 82q19 42 19 119v44zM1200 64q-63 -54 -127 -80q-65 -23 -133 -23q-116 0 -178 57q-62 56 -62 146q0 51 23 94q24 44 62 69q41 26 86 39
q45 10 106 18q133 15 213 40v20v12q0 72 -34 104q-44 40 -135 40q-86 0 -125 -30q-41 -32 -60 -105l-116 16q16 74 53 122q34 44 105 71q69 25 160 25t147 -22q58 -22 82 -53q27 -32 38 -82q7 -34 7 -109v-160q0 -175 6 -210q8 -48 30 -85h-124q-19 36 -24 86zM0 1463v82
h2048v-82h-2048zM0 1217v137h2048v-137h-2048z" />
    <glyph glyph-name="B" unicode="B" 
d="M0 1217v137h2048v-137h-2048zM0 1463v82h2048v-82h-2048zM828 -22h-110v976h120v-349q74 96 193 96q66 0 124 -27q56 -26 96 -74q34 -43 58 -115q21 -65 21 -143q0 -184 -89 -281q-90 -100 -216 -100q-127 0 -197 104v-87zM827 337q0 -127 35 -184q57 -93 154 -93
q76 0 135 69q57 66 57 202q0 142 -54 205q-57 67 -134 67q-78 0 -135 -69q-58 -69 -58 -197z" />
    <glyph glyph-name="C" unicode="C" 
d="M0 1463v82h2048v-82h-2048zM0 1217v137h2048v-137h-2048zM1213 252l117 -14q-18 -120 -98 -191q-80 -69 -194 -69q-144 0 -233 95q-87 93 -87 271q0 118 36 200t116 128q74 44 168 44q116 0 188 -58q73 -60 94 -165l-116 -19q-17 70 -60 108q-42 35 -101 35
q-93 0 -147 -65q-56 -66 -56 -205q0 -144 54 -205q56 -65 142 -65q72 0 118 43q46 42 59 132z" />
    <glyph glyph-name="D" unicode="D" 
d="M0 1217v137h2048v-137h-2048zM0 1463v82h2048v-82h-2048zM1218 -22v89q-67 -105 -197 -105q-82 0 -154 46q-69 45 -109 129q-39 84 -39 192q0 105 35 192t105 132q73 46 157 46q63 0 113 -27q49 -26 81 -70v348h119v-972h-111zM842 329q0 -134 56 -202q56 -67 134 -67
q80 0 134 64q55 65 55 196q0 141 -57 212q-54 67 -136 67q-80 0 -134 -65q-52 -64 -52 -205z" />
    <glyph glyph-name="E" unicode="E" 
d="M0 1463v82h2048v-82h-2048zM0 1217v137h2048v-137h-2048zM1221 221l124 -14q-32 -114 -108 -169q-81 -60 -202 -60q-155 0 -246 96q-90 96 -90 268q0 176 91 275t238 99q140 0 231 -96q90 -98 90 -272q0 -17 -1 -32h-525q5 -115 66 -177t146 -62q67 0 113 34
q46 33 73 110zM830 414h392q-8 90 -44 134q-57 69 -149 69q-83 0 -137 -54q-57 -57 -62 -149z" />
    <glyph glyph-name="F" unicode="F" 
d="M0 1217v137h2048v-137h-2048zM0 1463v82h2048v-82h-2048zM923 -22v615h-107v95h107v74q0 67 13 107q16 44 61 75q44 30 123 30q48 0 112 -12l-19 -105q-31 6 -70 6q-56 0 -79 -23q-21 -22 -21 -87v-65h138v-95h-138v-615h-120z" />
    <glyph glyph-name="G" unicode="G" 
d="M0 1463v82h2048v-82h-2048zM0 1217v137h2048v-137h-2048zM736 -82l117 -16q8 -57 40 -80q45 -32 123 -32q83 0 128 32q44 32 61 93q9 34 9 154q-79 -92 -195 -92q-146 0 -227 106q-80 105 -80 252q0 98 37 187q34 84 106 133q68 46 164 46q125 0 206 -101v85h111v-612
q0 -167 -34 -235q-35 -69 -107 -108q-75 -40 -179 -40q-123 0 -204 57q-81 56 -76 171zM835 343q0 -139 55 -202q57 -65 139 -65q83 0 139 65q56 63 56 198q0 131 -58 197q-57 65 -139 65q-81 0 -135 -65q-57 -67 -57 -193z" />
    <glyph glyph-name="H" unicode="H" 
d="M0 1217v137h2048v-137h-2048zM0 1463v82h2048v-82h-2048zM730 -22v997h123v-357q83 98 216 98q82 0 139 -31q59 -33 85 -88q25 -54 25 -162v-457h-123v457q0 92 -39 134q-42 43 -113 43q-50 0 -101 -30q-50 -28 -69 -75q-20 -49 -20 -134v-395h-123z" />
    <glyph glyph-name="I" unicode="I" horiz-adv-x="1232" 
d="M482 0h-482v62q-4 67 34 114.5t104 90.5q98 75 144 180t65 223h-239l237 199q-72 63 -72 158q0 85 61 147q61 61 148 61q85 0 146.5 -61.5t61.5 -146.5q0 -96 -72 -158l236 -199h-238q18 -118 64 -223t144 -180q66 -43 104 -90.5t35 -114.5v-62h-481z" />
    <glyph glyph-name="J" unicode="J" horiz-adv-x="1600" 
d="M490 432q-6 -33 -22 -74h430q-15 31 -22 74h-386zM872 450l38 80q-112 39 -228 40q-108 1 -227 -40l38 -80q97 32 189 32q93 0 190 -32zM522 270h-172q56 98 60 192q-96 98 -136 185.5t-4 186.5q27 79 97.5 157t259.5 206q-14 9 -38 30t-24 66q0 48 35 80q34 31 82 31
t83 -31q35 -32 35 -80q0 -45 -24 -66t-38 -30q188 -128 259 -206t98 -157q35 -99 -4.5 -186.5t-134.5 -185.5q3 -94 59 -192h-171q6 -11 8 -13q27 -44 58 -50t74 -6h209q63 0 118 -52t55 -149h-413q-103 0 -187 71t-84 165q0 -94 -84 -165t-185 -71h-413q0 97 54 149t119 52
h208q43 0 74 6t59 50q1 3 3 6q2 4 5 7zM635 868h-95v-90h95v-146h95v146h96v90h-96v88h-95v-88z" />
    <glyph glyph-name="K" unicode="K" horiz-adv-x="1432" 
d="M90 779l61 -60l74 78l-41 42zM596 985q-74 112 -157 -7l-42 -61h122q121 0 77 68zM321 1050q4 33 96 90t184 120l96 128l80 -181q283 -142 360 -348q77 -207 40 -503q-14 -112 4 -197q18 -90 48 -158l-1036 -1q-8 148 32 251.5t153 198.5q30 6 69 32q44 28 44 29t52 1
q53 1 115.5 24.5t115.5 80.5q55 60 55 193q0 14 -6.5 28t-8.5 30q-40 -162 -135 -220q-92 -56 -158 -48q-63 7 -157 -22q-58 -19 -88 -49q-28 -27 -38 -57q-9 -27 -9 -28l-180 101l96 69l-43 41l-101 -71l-10 248zM1098 57q-85 108 -71 257t23 302q8 153 -42 293
q-50 139 -263 230q183 -230 191 -285q23 -147 13 -292q-12 -158 -10 -274q3 -185 159 -231z" />
    <glyph glyph-name="L" unicode="L" horiz-adv-x="1296" 
d="M534 0h-534l24 220l133 99l41 549l-124 89l-14 285h241v-123h114v123h119h119v-123h115v123h240l-14 -285l-124 -89l42 -549l132 -99l25 -220h-535zM792 813l-6 97h-503l-6 -97h515zM242 370l-6 -97h596l-6 97h-584z" />
    <glyph glyph-name="M" unicode="M" horiz-adv-x="1656" 
d="M392 388l7 -80q178 75 334 75q157 0 340 -73l13 70q-175 86 -353 87q-171 1 -341 -79zM399 281l-19 -190h714l-21 193l-113 -74l101 -65h-299l116 73l-145 100l-145 -100l119 -73h-295l98 66zM733 0h-486q94 192 47 381q-47 188 -169 375q-4 -2 -16 -2q-45 0 -76.5 31.5
t-31.5 77.5q0 45 31.5 77t76.5 32t78 -32q32 -32 32 -77q0 -17 -5 -31q-4 -14 -13 -28l164 -116l84 404q-55 27 -60 87q-4 36 24 75q28 40 72.5 45t80 -24t39.5 -74q6 -58 -38 -94l166 -343l164 343q-44 36 -38 94q5 45 40 74q34 29 80 24q44 -5 72 -45q29 -39 25 -75
q-7 -60 -60 -87l84 -404l164 116q-11 14 -14 28q-5 19 -5 31q0 45 32 77t78 32q45 0 77 -32t32 -77q0 -46 -32 -77.5t-77 -31.5q-11 0 -16 2q-122 -187 -170 -375q-47 -189 48 -381h-484z" />
    <glyph glyph-name="N" unicode="N" horiz-adv-x="1628" 
d="M1015 400q-85 43 -175 59q2 124 30 203q90 265 205 227q138 -44 139 -140q2 -139 -199 -349zM389 400q85 43 175 59q-2 124 -30 203q-90 265 -205 227q-138 -44 -139 -140q-2 -139 199 -349zM367 281l-19 -190h714l-21 193l-113 -74l101 -65h-299l116 73l-145 100
l-145 -100l119 -73h-295l98 66zM222 0l51 304q-272 243 -272 447q0 283 327 325q73 9 219 -104q59 88 116 109v122h-102v85h102v79h78v-79h102v-85h-102v-122q55 -19 117 -110q136 120 218 105q326 -58 327 -325q1 -208 -272 -447l51 -304h-960zM747 378q129 -15 294 -77
q284 234 264 448q-20 206 -228 233q-185 24 -300 -318q-21 -63 -30 -286zM604 908q79 -119 98 -192q20 73 98 192q-66 87 -98 87q-30 0 -98 -87zM657 378q-15 245 -30 286q-130 340 -300 318q-201 -26 -228 -233q-17 -135 268 -448q167 62 290 77zM703 848q-10 29 -23 51
q13 24 22 24q11 -1 24 -24q-14 -23 -23 -51z" />
    <glyph glyph-name="O" unicode="O" horiz-adv-x="1200" 
d="M192 746q-1 494 284 493q283 0 283 -493q0 -576 -284 -576q-281 0 -283 576zM1 746q0 -746 474 -746q477 0 476 746q-1 669 -476 668q-474 0 -474 -668z" />
    <glyph glyph-name="X" unicode="X" horiz-adv-x="1160" 
d="M0 908l344 -344l-344 -344l110 -110l344 344l344 -344l110 110l-344 344l344 344l-110 110l-344 -344l-344 344z" />
    <glyph glyph-name="Z" unicode="Z" horiz-adv-x="1302" 
d="M1080 -1v152h-279q0 30 48 49q233 95 231 219q-4 226 -239 226q-169 0 -213 -82l94 -70q37 17 124 16q78 -1 73 -92q-5 -100 -209 -147q-82 -19 -82 -194v-77h452zM772 1415h180l-772 -1415h-180zM252 765h-154v441l-98 -98v135l172 172h80v-650z" />
    <glyph glyph-name="bracketleft" unicode="[" 
d="M1966 -421h-82v164h164v-82h-82v-82zM1775 -421h-137v410h410v-137h-273v-273z" />
    <glyph glyph-name="backslash" unicode="\" 
d="M410 -421h-137v2048h137v-2048zM164 -421h-82v2048h82v-2048z" />
    <glyph glyph-name="bracketright" unicode="]" 
d="M82 -421v82h-82v82h164v-164h-82zM273 -421v273h-273v137h410v-410h-137z" />
    <glyph glyph-name="asciicircum" unicode="^" 
d="M1966 -421h-82v2048h82v-2048zM1775 -421h-137v2048h137v-2048zM1056 828l-105 -9q-15 64 -39 90q-42 46 -106 46q-49 0 -89 -29q-51 -37 -79 -106q-29 -69 -30 -199q37 58 94 87q58 28 115 28q108 0 180 -78q74 -80 74 -201q0 -79 -35 -150q-34 -71 -96 -107
q-63 -37 -138 -37q-133 0 -216 97q-82 97 -82 320q0 250 91 363q80 98 217 98q105 0 167 -56q63 -58 77 -157zM625 457q0 -57 23 -105q22 -50 64 -76q41 -26 88 -26q66 0 115 54q48 53 48 147q0 89 -48 140q-48 52 -119 52q-73 0 -122 -52q-49 -51 -49 -134z" />
    <glyph glyph-name="underscore" unicode="_" horiz-adv-x="1834" 
d="M1600 583v160h-1600v-160h1600z" />
    <glyph glyph-name="grave" unicode="`" horiz-adv-x="670" 
 />
    <glyph glyph-name="a" unicode="a" horiz-adv-x="1100" 
d="M686 428v-109q0 -152 -251 -150q-260 1 -260 97q0 108 104 123zM859 442q0 467 -420 467q-301 0 -408 -167l142 -97q48 94 262 96q251 2 251 -190l-406 -24q-279 -15 -279 -261q0 -266 434 -266q172 0 251 137v-137h173v442z" />
    <glyph glyph-name="b" unicode="b" horiz-adv-x="1100" 
d="M685 449q0 290 -242 293q-269 3 -269 -290q0 -282 271 -285q240 -2 240 282zM858 457q0 -457 -408 -457q-208 0 -276 81v-81h-173v1343h173v-533q74 97 270 98q414 1 414 -451z" />
    <glyph glyph-name="c" unicode="c" horiz-adv-x="990" 
d="M0 474q0 -474 398 -474q263 0 392 168l-129 88q-36 -87 -260 -88q-225 0 -226 299q-1 274 236 275q196 0 250 -91l131 91q-133 169 -381 166q-411 -3 -411 -434z" />
    <glyph glyph-name="d" unicode="d" horiz-adv-x="1100" 
d="M170 468q0 271 260 274q252 3 252 -271q0 -300 -261 -303q-251 -3 -251 300zM1 474q0 -474 416 -474q195 0 265 85v-85h173v1414h-173v-591q-53 85 -253 85q-428 1 -428 -434z" />
    <glyph glyph-name="e" unicode="e" horiz-adv-x="1080" 
d="M163 523q0 220 227 220q249 -2 249 -220h-476zM0 466q0 -465 387 -465q281 0 384 167l-132 96q-47 -94 -249 -96q-227 -2 -227 227h638l-1 128q2 384 -410 385q-390 1 -390 -442z" />
    <glyph glyph-name="f" unicode="f" horiz-adv-x="855" 
d="M1 908v-167h148v-741h177v741h235v167h-235v218q0 107 185 107h99v178h-99q-362 0 -362 -287v-216h-148z" />
    <glyph glyph-name="g" unicode="g" horiz-adv-x="1100" 
d="M173 457q0 285 249 284q257 0 257 -303q1 -270 -268 -270q-238 0 -238 289zM0 445q0 -444 411 -444q226 0 268 167q20 -462 -308 -464q-146 -1 -201 175l-170 -11q90 -289 386 -289q442 0 466 593v736h-173v-170q-59 168 -250 170q-429 5 -429 -463z" />
    <glyph glyph-name="h" unicode="h" horiz-adv-x="1100" 
d="M176 0h-175v1409h176l-4 -670q75 167 270 168q415 4 415 -302v-605h-172v598q0 149 -251 145q-259 -5 -259 -164v-579z" />
    <glyph glyph-name="i" unicode="i" horiz-adv-x="1178" 
d="M343 749h275l-133 134q97 18 97 148q0 112 -100 114q-109 1 -110 -124q-1 -128 106 -138zM105 99h747q-14 48 -98 100q-77 47 -162 199q-45 80 -72 272h-80q-14 -155 -69 -272q-62 -129 -168 -198q-92 -59 -98 -101zM482 0h-482v62q-4 67 34 114.5t104 90.5
q98 75 144 180t65 223h-239l237 199q-72 63 -72 158q0 85 61 147q61 61 148 61q85 0 146.5 -61.5t61.5 -146.5q0 -96 -72 -158l236 -199h-238q18 -118 64 -223t144 -180q66 -43 104 -90.5t35 -114.5v-62h-481z" />
    <glyph glyph-name="j" unicode="j" horiz-adv-x="1597" 
d="M628 868v86h108v-86h80v-99h-80v-138h-108v138h-76v99h76zM682 574q149 0 225 -26q138 120 94 253q-50 149 -319 326q-269 -174 -317 -325q-40 -125 96 -257q69 31 221 29zM499 365h370q-17 45 -15 77q-51 28 -172 28q-107 0 -174 -28q4 -27 -9 -77zM682 1240q54 1 54 55
q0 46 -54 46q-52 0 -52 -46q0 -55 52 -55zM591 270q-30 -96 -70 -114q-64 -28 -151 -28h-200q-39 0 -55 -22l-20 -29h328q61 0 118 40q77 55 78 153h-28zM746 270q0 -98 77 -153q56 -40 119 -40h332q-7 16 -18 29q-19 22 -61 22h-200q-91 0 -133 28q-78 54 -93 114h-23z
M763 1180q217 -170 234 -189q71 -78 98 -157q35 -99 -4.5 -186.5t-134.5 -185.5q3 -94 59 -192h-171q9 -29 66 -63q10 -6 74 -6h209q63 0 118 -52t55 -149h-413q-103 0 -187 71t-84 165q0 -94 -84 -165t-185 -71h-413q0 97 54 149t119 52h208q60 0 74 6q45 20 58 63h-163
q56 98 60 192q-96 98 -136 186q-39 84 -4 186q24 70 98 157q65 78 235 189q-70 35 -70 114q0 134 152 137q150 4 150 -139q0 -72 -72 -112z" />
    <glyph glyph-name="k" unicode="k" horiz-adv-x="1462" 
d="M168 772l47 -45l43 63l-27 27zM636 958q31 -46 -60 -46h-122l26 38q82 121 156 8zM300 97h766q-25 116 -19 166q51 368 -16 538q-99 252 -317 333l-30 75l-32 -36q-67 -41 -157 -95q-83 -51 -105 -99l-300 -199v-39l35 24l135 -138q75 51 163 53q137 3 180 -22
q12 15 67 17q73 2 149 210q55 -120 -12 -220q-48 -69 -120 -78q-39 -5 -50 -34q-40 -46 -58 -89q-33 -72 -139 -98q-47 -34 -100 -124q-40 -68 -40 -145zM330 631zM329 1050q4 33 96 90t184 120l96 128l80 -181q283 -142 360 -348q77 -207 40 -503q-14 -107 4 -196
q18 -91 48 -160h-1036q-8 149 32 252.5t153 197.5q65 14 96 59t47 71q-99 17 -157 -2t-88 -49q-28 -27 -38 -57q-9 -27 -9 -28l-180 101l96 69l-43 42l-101 -72l-10 248z" />
    <glyph glyph-name="l" unicode="l" horiz-adv-x="1296" 
d="M287 917h498l126 85l8 149h-72v-120h-272v120h-79v-120h-269v120h-75l8 -146zM258 366h550l-29 451h-491zM110 91h849l-9 85l-120 91h-589l-124 -94zM0 0l24 220l133 99l41 549l-124 89l-14 285h241v-123h114v123h238v-123h115v123h240l-14 -285l-124 -89l42 -549
l132 -99l25 -220h-535h-534z" />
    <glyph glyph-name="m" unicode="m" horiz-adv-x="1674" 
d="M586 218l146 90l144 -90l-144 -90zM378 91h714l-11 40l-122 79l112 73q-191 74 -339 75q-149 1 -336 -77l112 -70l-116 -72zM386 385q151 65 346 65q192 -1 347 -65l95 249l-136 -95l-96 461l-210 -431l-216 431l-90 -461l-136 95zM732 0h-486q94 192 47 381
q-47 188 -169 375q-4 -2 -16 -2q-45 0 -76.5 31.5t-31.5 77.5q0 45 31.5 77t76.5 32t78 -32q32 -32 32 -77q0 -17 -5 -31q-4 -14 -13 -28l164 -116l84 404q-55 27 -60 87q-4 36 24 75q28 40 72.5 45t80 -24t39.5 -74q6 -58 -38 -94l166 -343l164 343q-44 36 -38 94
q5 45 40 74q34 29 80 24q44 -5 72 -45q29 -39 25 -75q-7 -60 -60 -87l84 -404l164 116q-11 14 -14 28q-5 19 -5 31q0 45 32 77t78 32q45 0 77 -32t32 -77q0 -46 -32 -77.5t-77 -31.5q-11 0 -16 2q-122 -187 -170 -375q-47 -189 48 -381h-484zM108 902q-39 0 -39 -39
q0 -38 39 -38t39 38q0 39 -39 39zM496 1230q-39 0 -39 -39q0 -38 39 -38t39 38q0 39 -39 39zM1354 902q-39 0 -39 -39q0 -38 39 -38t39 38q0 39 -39 39zM967 1230q-39 0 -39 -39q0 -38 39 -38q38 0 38 38q0 39 -38 39z" />
    <glyph glyph-name="n" unicode="n" horiz-adv-x="1616" 
d="M221 0l51 304q-272 243 -272 447q0 283 327 325q73 9 219 -104q59 88 116 109v122h-102v85h102v79h78v-79h102v-85h-102v-122q55 -19 117 -110q136 120 218 105q326 -58 327 -325q1 -208 -272 -447l51 -304h-960zM746 459q167 -15 322 -77q249 232 236 367
q-20 206 -228 233q-170 22 -300 -318q-25 -63 -30 -205zM603 908q79 -119 98 -192q20 73 98 192q-66 87 -98 87q-30 0 -98 -87zM656 459q-5 142 -30 205q-130 340 -300 318q-208 -27 -228 -233q-13 -135 236 -367q155 62 322 77zM555 218l146 90l144 -90l-144 -90zM347 91
h714l-11 40l-122 79l112 73q-191 74 -339 75q-149 1 -336 -77l112 -70l-116 -72z" />
    <glyph glyph-name="o" unicode="o" horiz-adv-x="1200" 
d="M192 746q-1 494 284 493q283 0 283 -493q0 -576 -284 -576q-281 0 -283 576zM1 746q0 -746 474 -746q477 0 476 746q-1 669 -476 668q-474 0 -474 -668z" />
    <glyph glyph-name="x" unicode="x" horiz-adv-x="1160" 
d="M0 908l344 -344l-344 -344l110 -110l344 344l344 -344l110 110l-344 344l344 344l-110 110l-344 -344l-344 344z" />
    <glyph glyph-name="y" unicode="y" 
d="M0 1217v137h2048v-137h-2048zM0 1463v82h2048v-82h-2048z" />
    <glyph glyph-name="z" unicode="z" 
d="M0 -339v82h2048v-82h-2048zM0 -148v137h2048v-137h-2048z" />
    <glyph glyph-name="braceleft" unicode="{" 
d="M1775 1627v-273h273v-137h-410v410h137zM1966 1627v-82h82v-82h-164v164h82z" />
    <glyph glyph-name="bar" unicode="|" 
d="M1966 -421h-82v2048h82v-2048zM1775 -421h-137v2048h137v-2048z" />
    <glyph glyph-name="braceright" unicode="}" 
d="M273 1627h137v-410h-410v137h273v273zM82 1627h82v-164h-164v82h82v82z" />
    <glyph glyph-name="asciitilde" unicode="~" 
d="M1434 1031l1 -395l-79 -70l-360 447l78 66l210 -255v208zM780 659q0 -154 80 -290q78 -135 212 -213q136 -78 291 -78q156 -1 291 77q139 81 212 214q65 118 66 290q0 173 -65 291q-73 134 -212 214q-134 77 -292 76q-156 0 -291 -78q-134 -78 -212 -213
q-80 -136 -80 -290zM697 659q0 179 89 333q89 155 244 244q154 89 333 89q180 0 333 -88q154 -89 244 -245q89 -154 89 -333t-89 -333q-89 -155 -244 -244q-154 -89 -333 -89t-333 89q-155 89 -244 244q-89 154 -89 333zM164 -421h-82v2048h82v-2048zM410 -421h-137v2048
h137v-2048z" />
    <glyph glyph-name="exclamdown" unicode="&#xa1;" horiz-adv-x="500" 
d="M130 0q-96 0 -96 88q0 85 96 85q92 1 92 -82q0 -91 -92 -91zM-5 1415h264l-65 -1073h-133z" />
    <glyph glyph-name="sterling" unicode="&#xa3;" 
d="M1775 -421h-137v2048h137v-2048zM644 406l106 13q18 -90 61 -129q44 -40 107 -40q74 0 126 52q51 51 51 128q0 71 -48 120q-47 48 -121 48q-32 0 -74 -12l12 93q4 0 8.5 -1t7.5 -1q65 0 123 36q54 34 54 108q0 58 -40 96q-38 39 -102 39q-63 0 -102 -39q-42 -40 -54 -116
l-105 19q19 106 88 165q70 58 171 58q74 0 129 -30q61 -32 92 -82q31 -51 31 -112q0 -56 -30 -102q-29 -46 -89 -72q77 -19 119 -73q42 -55 42 -139q0 -113 -82 -191q-83 -79 -207 -79q-112 0 -189 68q-77 69 -85 175zM1966 -421h-82v2048h82v-2048z" />
    <glyph glyph-name="logicalnot" unicode="&#xac;" 
d="M1051 163h-108v686q-34 -34 -102 -74q-63 -38 -113 -56v104q88 42 158 103q70 63 95 117h70v-880zM1775 -421h-137v2048h137v-2048zM1966 -421h-82v2048h82v-2048z" />
    <glyph glyph-name="onehalf" unicode="&#xbd;" horiz-adv-x="1302" 
d="M1080 -1v152h-279q0 30 48 49q233 95 231 219q-4 226 -239 226q-169 0 -213 -82l94 -70q37 17 124 16q78 -1 73 -92q-5 -100 -209 -147q-82 -19 -82 -194v-77h452zM772 1415h180l-772 -1415h-180zM252 765h-154v441l-98 -98v135l172 172h80v-650z" />
    <glyph glyph-name="questiondown" unicode="&#xbf;" horiz-adv-x="1040" 
d="M184 168v-168h194v168h-194zM0 1255q106 118 292 118q491 0 491 -378q0 -252 -313 -424q-103 -57 -103 -236h-168q-2 229 125 311q264 171 264 345q0 211 -300 214q-92 1 -177 -57z" />
    <glyph glyph-name="Agrave" unicode="&#xc0;" 
d="M1024 1271q66 0 64 66q1 55 -64 55q-66 0 -64 -55q-3 -66 64 -66zM1024 67q0 -114 -101 -198.5t-223 -84.5h-495q0 117 65 179t142 62h250q51 0 88 7t71 60q12 20 10 16h76q-7 -21 -3 -13q-45 -105 -109 -124.5t-146 -19.5h-240q-52 0 -86 -40t-34 -53h424q66 0 158.5 65
t93.5 185h-341q67 116 72 229q-114 119 -162 223.5t-6 223.5q33 96 118 189.5t312 246.5q-17 11 -46 36t-29 79q0 58 41 96t100 38q58 0 99.5 -38t41.5 -96q0 -54 -29.5 -79t-45.5 -36q226 -153 311 -246.5t119 -189.5q42 -119 -6 -223.5t-162 -223.5q4 -113 72 -229h-341
q0 -120 93 -185t159 -65h424q0 13 -34.5 53t-85.5 40h-240q-83 0 -146.5 19.5t-108.5 124.5q4 -8 -3 13h76q-2 4 10 -16q33 -53 70 -60t89 -7h250q76 0 141.5 -62t65.5 -179h-495q-123 0 -223.5 84.5t-100.5 198.5zM1024 181h283q-28 84 -29 154q-120 41 -254 38
q-135 3 -254 -38q-2 -70 -29 -154h283zM1024 448q159 1 285 -42q189 180 142 346q-60 193 -427 431q-368 -238 -427 -431q-48 -166 142 -346q125 43 285 42zM977 809v104h94v-104h95v-89h-95v-165h-94v165h-95v89h95z" />
    <glyph glyph-name="Aacute" unicode="&#xc1;" 
d="M727 1301l326 326h-58l-297 -297zM698 1330l-698 -698v-58l727 727zM246 -293h58l-129 -128h-58zM1527 931l-22 35l543 544v-58zM538 -293h58l-128 -128h-58zM1590 701v58l458 458v-58zM831 -293h58l-128 -128h-58zM1441 260l-11 47l618 617v-58zM1123 -293h58l-128 -128
h-58zM1578 105l-64 -7l534 534v-58zM1416 -293h58l-129 -128h-58zM1809 43l-32 25l271 272v-58zM1708 -293h58l-128 -128h-58zM1909 -150l-12 46l151 151v-58zM1873 -421l175 175v-58l-117 -117h-58zM159 -86l-22 -81l-137 -137v58zM613 310l-203 -203l-66 -8l241 240z
M1390 1086l-31 27l514 514h58zM473 519l17 -40l-490 -490v58zM1226 1215l-32 26l386 386h58zM455 794l-17 -75l-438 -437v58zM1170 1452l-31 27l148 148h58zM761 1627l-761 -761v58l703 703h58zM468 1627l-468 -468v58l410 410h58zM175 1627l-175 -175v58l117 117h58z
M1024 1271q66 0 64 66q1 55 -64 55q-66 0 -64 -55q-3 -66 64 -66zM1024 67q0 -114 -101 -198.5t-223 -84.5h-495q0 117 65 179t142 62h250q51 0 88 7t71 60q12 20 10 16h76q-7 -21 -3 -13q-45 -105 -109 -124.5t-146 -19.5h-240q-52 0 -86 -40t-34 -53h424q66 0 158.5 65
t93.5 185h-341q67 116 72 229q-114 119 -162 223.5t-6 223.5q33 96 118 189.5t312 246.5q-17 11 -46 36t-29 79q0 58 41 96t100 38q58 0 99.5 -38t41.5 -96q0 -54 -29.5 -79t-45.5 -36q226 -153 311 -246.5t119 -189.5q42 -119 -6 -223.5t-162 -223.5q4 -113 72 -229h-341
q0 -120 93 -185t159 -65h424q0 13 -34.5 53t-85.5 40h-240q-83 0 -146.5 19.5t-108.5 124.5q4 -8 -3 13h76q-2 4 10 -16q33 -53 70 -60t89 -7h250q76 0 141.5 -62t65.5 -179h-495q-123 0 -223.5 84.5t-100.5 198.5zM1024 181h283q-28 84 -29 154q-120 41 -254 38
q-135 3 -254 -38q-2 -70 -29 -154h283zM1024 448q159 1 285 -42q189 180 142 346q-60 193 -427 431q-368 -238 -427 -431q-48 -166 142 -346q125 43 285 42zM977 809v104h94v-104h95v-89h-95v-165h-94v165h-95v89h95z" />
    <glyph glyph-name="Acircumflex" unicode="&#xc2;" 
d="M1004 535q31 -17 54 -42q21 15 36.5 13.5t33.5 1.5q78 11 128.5 85t52.5 165l-19 67q-55 -239 -188 -257q-21 -3 -45 -5.5t-53 -27.5zM746 984l-46 60q6 39 115.5 107.5t220.5 143.5l115 154l96 -217q342 -172 432.5 -417.5t47.5 -603.5q-18 -128 4.5 -236.5t57.5 -190.5
h-1242q-9 178 39 301.5t183 237.5q78 16 115 71t55 85q-236 42 -292 -60q-56 -101 -56 -102l-217 121l115 82l-51 50l-122 -86l-12 297l396 263q12 -18 23 -31t23 -29l-366 -241l4 -125l64 41l138 -144l-78 -65l47 -28l39 45q38 45 108 73q54 18 165 27t191 -74
q-56 -63 -91 -132.5t-152 -102.5q-92 -79 -146 -176.5t-48 -223.5h1019q-35 133 -32 234.5t12.5 199t9 205t-40.5 252.5q-51 126 -134 234t-262 188l-59 133l-49 -69q-99 -62 -208 -131t-131 -120zM1038 954l-212 2l116 100q30 25 80 -38.5t16 -63.5zM502 759l37 -31
l-46 -55l-57 26l33 56z" />
    <glyph glyph-name="Atilde" unicode="&#xc3;" 
d="M473 -65l-356 -356h58l294 294zM1635 1038l-28 31l441 441v-58zM538 -293h58l-128 -128h-58zM1747 858l-19 40l320 319v-58zM1811 629l-9 50l246 245v-58zM831 -293h58l-128 -128h-58zM1818 344l3 61l227 227v-58zM1123 -293h58l-128 -128h-58zM1802 36l-3 55l249 249
v-58zM1416 -293h58l-129 -128h-58zM1864 -195l-18 40l202 202v-58zM1708 -293h58l-128 -128h-58zM1873 -421l175 175v-58l-117 -117h-58zM516 271l38 -21l-554 -554v58zM1482 1179l-34 24l425 424h58zM327 374l38 -21l-365 -364v58zM1304 1293l-18 40l294 294h58zM235 575
l3 -56l-238 -237v58zM1216 1497l-30 28l101 102h58zM1053 1627l-1053 -1053v58l995 995h58zM761 1627l-761 -761v58l703 703h58zM468 1627l-468 -468v58l410 410h58zM175 1627l-175 -175v58l117 117h58zM1004 535q31 -17 54 -42q21 15 36.5 13.5t33.5 1.5q78 11 128.5 85
t52.5 165l-19 67q-55 -239 -188 -257q-21 -3 -45 -5.5t-53 -27.5zM746 984q22 51 131 120t208 131l49 69l59 -133q179 -80 262 -188t134 -234q40 -145 40.5 -252.5t-9 -205t-12.5 -199t32 -234.5h-1019q-6 126 48 223.5t146 176.5q117 33 152 102.5t91 132.5q-80 83 -191 74
t-165 -27q-70 -28 -108 -73q-38 -44 -39 -45l-47 28l78 65l-138 144l-64 -41l-4 125l366 241q-12 16 -23 29t-23 31l-396 -263l12 -297l122 86l51 -50l-115 -82l217 -121l56 102q56 102 292 60q-18 -30 -55 -85t-115 -71q-135 -114 -183 -237.5t-39 -301.5h1242
q-35 82 -57.5 190.5t-4.5 236.5q43 358 -47.5 603.5t-432.5 417.5l-96 217l-115 -154q-111 -75 -220.5 -143.5t-115.5 -107.5zM1038 954q34 0 -16 63.5t-80 38.5l-116 -100zM502 759l37 -31l-46 -55l-57 26l33 56z" />
    <glyph glyph-name="Adieresis" unicode="&#xc4;" 
d="M1024 126h-381l5 74h376h376l5 -74h-381zM1024 787h-332l5 74h327h327l5 -74h-332zM1024 -216h-641l29 264l159 118l50 659l-149 107l-17 341h289v-147h137v147h143h143v-147h137v147h289l-17 -341l-149 -107l50 -659l159 -118l29 -264h-641zM1024 -142h557l-15 149
l-161 119l-54 735l152 109l13 230h-138v-148h-285v148h-69h-69v-148h-285v148h-138l13 -230l152 -109l-54 -735l-161 -119l-15 -149h557z" />
    <glyph glyph-name="Aring" unicode="&#xc5;" 
d="M306 -232l-189 -189h58l129 128zM1660 1063l3 62l385 385v-58zM538 -293h58l-128 -128h-58zM1519 630l-4 54l533 533v-58zM831 -293h58l-128 -128h-58zM1539 358l-4 54l513 512v-58zM1123 -293h58l-128 -128h-58zM1626 152l-34 25l456 455v-58zM1416 -293h58l-129 -128
h-58zM1723 -43l-6 51l331 332v-58zM1580 -421l468 468v-58l-410 -410h-58zM1873 -421l175 175v-58l-117 -117h-58zM500 255l-500 -501v-58l321 321zM1654 1350h-58l277 277h58zM526 573l-5 -63l-521 -521v58zM1361 1350h-58l277 277h58zM487 826l34 -24l-521 -520v58z
M1068 1350h-57l276 277h58zM391 1023l3 -55l-394 -394v58zM776 1350h-58l277 277h58zM375 1300l-375 -376v-58l378 379zM483 1350h-58l278 277h58zM468 1627l-468 -468v58l410 410h58zM175 1627l-175 -175v58l117 117h58zM1024 126h-381l5 74h376h376l5 -74h-381zM1024 787
h-332l5 74h327h327l5 -74h-332zM1024 -216h-641l29 264l159 118l50 659l-149 107l-17 341h289v-147h137v147h143h143v-147h137v147h289l-17 -341l-149 -107l50 -659l159 -118l29 -264h-641zM1024 -142h557l-15 149l-161 119l-54 735l152 109l13 230h-138v-148h-285v148h-69
h-69v-148h-285v148h-138l13 -230l152 -109l-54 -735l-161 -119l-15 -149h557z" />
    <glyph glyph-name="AE" unicode="&#xc6;" 
d="M1024 -142h478q-53 130 -43 280q-100 39 -213 67.5t-222 28.5q-110 0 -223 -28.5t-212 -67.5q9 -150 -43 -280h478zM1024 308q111 0 223.5 -26.5t220.5 -67.5v0v0q17 105 60.5 212.5t105.5 212.5l-220 -155l-123 601l-267 -555l-267 555l-123 -601l-220 155
q61 -105 104.5 -212.5t61.5 -212.5v0v0q108 41 220.5 67.5t223.5 26.5zM1024 -216h-583q114 231 57.5 456.5t-202.5 449.5q-12 -2 -19 -2q-54 0 -92.5 38.5t-38.5 92.5t38.5 92.5t92.5 38.5t92.5 -38.5t38.5 -92.5q0 -20 -6 -38q-4 -14 -15 -33l196 -139l100 486
q-64 31 -72 103q-5 44 29 91t88 53q54 5 96 -29t48 -88q7 -68 -46 -114l198 -412l198 412q-54 46 -46 114q6 54 48 88t96 29q54 -6 87.5 -53t29.5 -91q-9 -72 -72 -103l100 -486l196 139q-12 19 -15 33q-6 18 -6 38q0 54 38.5 92.5t92.5 38.5t92.5 -38.5t38.5 -92.5
t-38.5 -92.5t-92.5 -38.5q-7 0 -19 2q-147 -224 -203 -449.5t58 -456.5h-583zM276 881q-62 0 -62 -62t62 -62q63 0 63 62t-63 62zM742 1275q-62 0 -62 -62t62 -62t62 62t-62 62zM590 108l119 -72l-134 -86q19 86 15 158zM1772 881q-63 0 -63 -62t63 -62q62 0 62 62t-62 62z
M1306 1275q-62 0 -62 -62t62 -62t62 62t-62 62zM1458 108l-119 -72l134 -86q-20 86 -15 158zM885 61l139 83l139 -86l-139 -84z" />
    <glyph glyph-name="Ccedilla" unicode="&#xc7;" 
d="M487 769l-2 55l82 82l-18 -76zM559 1133l-153 -153l-39 19l174 173zM97 729l19 -39l-116 -116v58zM387 -152l-270 -269h58l191 191zM1485 888l-10 49l573 573v-58zM538 -293h58l-128 -128h-58zM1885 996l-43 15l206 206v-58zM1978 797v58l70 69v-58zM831 -293h58
l-128 -128h-58zM1123 -293h58l-128 -128h-58zM1612 139l9 66l427 427v-58zM1416 -293h58l-129 -128h-58zM1645 -121l-13 45l416 416v-58zM1580 -421l468 468v-58l-410 -410h-58zM1873 -421l175 175v-58l-117 -117h-58zM430 184l5 -53l-435 -435v58zM1516 1212l-9 49l366 366
h58zM363 409l16 -41l-379 -379v58zM980 968l-19 39l145 146l8 -50zM1404 1393l-39 19l215 215h58zM261 600l22 -36l-283 -282v58zM825 1399l-45 13l215 215h58zM558 1424l-29 29l174 174h58zM529 1453l29 -29l-558 -558v58zM468 1627l-468 -468v58l410 410h58zM175 1627
l-175 -175v58l117 117h58zM1024 -142h478q-53 130 -43 280q-100 39 -213 67.5t-222 28.5q-110 0 -223 -28.5t-212 -67.5q9 -150 -43 -280h478zM1024 308q111 0 223.5 -26.5t220.5 -67.5v0v0q17 105 60.5 212.5t105.5 212.5l-220 -155l-123 601l-267 -555l-267 555l-123 -601
l-220 155q61 -105 104.5 -212.5t61.5 -212.5v0v0q108 41 220.5 67.5t223.5 26.5zM1024 -216h-583q114 231 57.5 456.5t-202.5 449.5q-12 -2 -19 -2q-54 0 -92.5 38.5t-38.5 92.5t38.5 92.5t92.5 38.5t92.5 -38.5t38.5 -92.5q0 -20 -6 -38q-4 -14 -15 -33l196 -139l100 486
q-64 31 -72 103q-5 44 29 91t88 53q54 5 96 -29t48 -88q7 -68 -46 -114l198 -412l198 412q-54 46 -46 114q6 54 48 88t96 29q54 -6 87.5 -53t29.5 -91q-9 -72 -72 -103l100 -486l196 139q-12 19 -15 33q-6 18 -6 38q0 54 38.5 92.5t92.5 38.5t92.5 -38.5t38.5 -92.5
t-38.5 -92.5t-92.5 -38.5q-7 0 -19 2q-147 -224 -203 -449.5t58 -456.5h-583zM276 881q-62 0 -62 -62t62 -62q63 0 63 62t-63 62zM742 1275q-62 0 -62 -62t62 -62t62 62t-62 62zM590 108l119 -72l-134 -86q19 86 15 158zM1772 881q-63 0 -63 -62t63 -62q62 0 62 62t-62 62z
M1306 1275q-62 0 -62 -62t62 -62t62 62t-62 62zM1458 108l-119 -72l134 -86q-20 86 -15 158zM885 61l139 83l139 -86l-139 -84zM1108 1447l29 -29l-191 -191l-9 49zM1137 1418l-29 29l179 180h58z" />
    <glyph glyph-name="Egrave" unicode="&#xc8;" 
d="M977 1329v95h94v-95h107v-95h-107v-153q-48 16 -94 0v153h-107v95h107zM1024 1015q-47 0 -136 -121q-31 36 -50 55q93 140 186 140q92 0 186 -140q-20 -19 -50 -55q-90 121 -136 121zM577 108l-26 -156l145 84zM987 314q-1 147 -36.5 274.5t-80.5 193.5
q-45 88 -131.5 153t-168.5 65q-103 0 -208 -93t-105 -229q0 -109 86.5 -236t202.5 -223q212 88 441 95zM1024 -216h-576l61 365q-325 280 -326 535q-1 159 125 274.5t267 115.5q78 0 158.5 -47t142.5 -119q61 -74 98.5 -164.5t49.5 -150.5q12 60 49 150.5t99 164.5
q61 72 142 119t159 47q140 0 266 -115.5t126 -274.5q-2 -255 -326 -535l61 -365h-576zM1024 -142h489l-50 298q-216 84 -439 84t-439 -84l-50 -298h489zM1471 108l26 -156l-145 84zM1061 314q229 -7 441 -95q115 96 202 223t87 236q0 136 -105.5 229t-207.5 93
q-83 0 -169.5 -65t-130.5 -153q-46 -66 -81.5 -193.5t-35.5 -274.5zM885 81l141 84l137 -86l-141 -84z" />
    <glyph glyph-name="Eacute" unicode="&#xc9;" 
d="M885 81l141 84l137 -86l-141 -84zM1061 314q229 -7 441 -95q115 96 202 223t87 236q0 136 -105.5 229t-207.5 93q-83 0 -169.5 -65t-130.5 -153q-46 -66 -81.5 -193.5t-35.5 -274.5zM1471 108l26 -156l-145 84zM1024 -142h489l-50 298q-216 84 -439 84t-439 -84l-50 -298
h489zM1024 -216h-576l61 365q-325 280 -326 535q-1 159 125 274.5t267 115.5q78 0 158.5 -47t142.5 -119q61 -74 98.5 -164.5t49.5 -150.5q12 60 49 150.5t99 164.5q61 72 142 119t159 47q140 0 266 -115.5t126 -274.5q-2 -255 -326 -535l61 -365h-576zM987 314
q-1 147 -36.5 274.5t-80.5 193.5q-45 88 -131.5 153t-168.5 65q-103 0 -208 -93t-105 -229q0 -109 86.5 -236t202.5 -223q212 88 441 95zM577 108l-26 -156l145 84zM1024 1015q-47 0 -136 -121q-31 36 -50 55q93 140 186 140q92 0 186 -140q-20 -19 -50 -55
q-90 121 -136 121zM977 1329h-107v-95h107v-153q46 16 94 0v153h107v95h-107v95h-94v-95zM175 1627l-175 -175v58l117 117h58zM468 1627l-468 -468v58l410 410h58zM761 1627l-761 -761v58l703 703h58zM110 742l-8 -66l-102 -102v58zM580 1154l-64 -7l479 480h58zM150 489
l16 -41l-166 -166v58zM1161 1443l-29 29l155 155h58zM257 304l25 -33l-282 -282v58zM1272 1261v58l308 308h58zM395 149l30 -28l-425 -425v58zM1455 1151l-73 -15l491 491h58zM1873 -421l175 175v-58l-117 -117h-58zM1580 -421l468 468v-58l-410 -410h-58zM1416 -293h58
l-129 -128h-58zM1662 -104l-8 49l394 395v-58zM1123 -293h58l-128 -128h-58zM1848 374l53 111l147 147v-58zM831 -293h58l-128 -128h-58zM1936 754l-9 50l121 120v-58zM538 -293h58l-128 -128h-58zM1845 956l-27 31l230 230v-58zM381 -157l-264 -264h58l195 194zM1689 1093
l-40 18l399 399v-58z" />
    <glyph glyph-name="Ecircumflex" unicode="&#xca;" 
d="M520 -142h1008q8 97 -132 182q-132 101 -196.5 239.5t-79.5 308.5h-192q-15 -170 -79.5 -308.5t-196.5 -239.5q-141 -85 -132 -182zM1024 -216h-578v74q-4 80 41.5 137t125.5 108q117 91 171.5 217.5t78.5 267.5h-287l284 239q-86 74 -86 188q0 103 73 177t177 74
q103 0 176.5 -74t73.5 -177q0 -114 -86 -188l284 -239h-287q23 -141 78 -267.5t172 -217.5q79 -51 124.5 -108t42.5 -137v-74h-578zM756 653h536l-225 191q134 31 134 171q0 76 -52.5 126.5t-124.5 50.5q-73 0 -125 -50.5t-52 -126.5q0 -140 134 -171z" />
    <glyph glyph-name="Edieresis" unicode="&#xcb;" 
d="M369 -169v-58l-194 -194h-58zM1370 774l-31 26l709 710v-58zM538 -293h58l-128 -128h-58zM1341 511h58l-92 -93l-14 44zM1529 640l-32 26l551 551v-58zM831 -293h58l-128 -128h-58zM1412 230l-26 32l662 662v-58zM1123 -293h58l-128 -128h-58zM1570 96l-31 27l509 509
v-58zM1416 -293h58l-129 -128h-58zM1677 -90l-11 47l382 383v-58zM1580 -421l468 468v-58l-410 -410h-58zM1873 -421l175 175v-58l-117 -117h-58zM768 523l-21 -79l-747 -748v58zM1349 1045l-8 50l532 532h58zM506 553l59 1l-565 -565v58zM1255 1244l-31 27l356 356h58z
M700 1039l-700 -699v-58l700 699v58zM1060 1341l-61 -2l288 288h58zM1053 1627l-1053 -1053v58l995 995h58zM761 1627l-761 -761v58l703 703h58zM468 1627l-468 -468v58l410 410h58zM175 1627l-175 -175v58l117 117h58zM520 -142h1008q8 97 -132 182q-132 101 -196.5 239.5
t-79.5 308.5h-192q-15 -170 -79.5 -308.5t-196.5 -239.5q-141 -85 -132 -182zM1024 -216h-578v74q-4 80 41.5 137t125.5 108q117 91 171.5 217.5t78.5 267.5h-287l284 239q-86 74 -86 188q0 103 73 177t177 74q103 0 176.5 -74t73.5 -177q0 -114 -86 -188l284 -239h-287
q23 -141 78 -267.5t172 -217.5q79 -51 124.5 -108t42.5 -137v-74h-578zM756 653h536l-225 191q134 31 134 171q0 76 -52.5 126.5t-124.5 50.5q-73 0 -125 -50.5t-52 -126.5q0 -140 134 -171z" />
    <glyph glyph-name="Igrave" unicode="&#xcc;" 
d="M82 1627h82v-2048h-82v2048z" />
    <glyph glyph-name="Iacute" unicode="&#xcd;" 
d="M1884 1627h82v-2048h-82v2048z" />
    <glyph glyph-name="Eth" unicode="&#xd0;" 
d="M1434 1031l1 -395l-79 -70l-360 447l78 66l210 -255v208zM780 659q0 -154 80 -290q78 -135 212 -213q136 -78 291 -78q156 -1 291 77q139 81 212 214q65 118 66 290q0 173 -65 291q-73 134 -212 214q-134 77 -292 76q-156 0 -291 -78q-134 -78 -212 -213
q-80 -136 -80 -290zM697 659q0 179 89 333q89 155 244 244q154 89 333 89q180 0 333 -88q154 -89 244 -245q89 -154 89 -333t-89 -333q-89 -155 -244 -244q-154 -89 -333 -89t-333 89q-155 89 -244 244q-89 154 -89 333zM164 -421h-82v2048h82v-2048z" />
    <glyph glyph-name="Ntilde" unicode="&#xd1;" 
d="M1051 163h-108v686q-34 -34 -102 -74q-63 -38 -113 -56v104q88 42 158 103q70 63 95 117h70v-880zM1966 -421h-82v2048h82v-2048z" />
    <glyph glyph-name="Ograve" unicode="&#xd2;" 
d="M1966 -421h-82v2048h82v-2048zM1072 266v-103h-579q0 38 13 74q23 61 71 118q44 52 140 132q143 117 193 186q51 68 51 129q0 65 -46 108q-47 45 -120 45q-75 0 -123 -47q-47 -47 -48 -130l-111 12q11 125 85 189q76 64 200 64t200 -70q73 -69 73 -173q0 -53 -21 -103
t-71 -107q-53 -60 -167 -155q-78 -65 -124 -110q-27 -28 -45 -59h429z" />
    <glyph glyph-name="Oacute" unicode="&#xd3;" 
d="M644 406l106 13q18 -90 61 -129q44 -40 107 -40q74 0 126 52q51 51 51 128q0 71 -48 120q-47 48 -121 48q-32 0 -74 -12l12 93q4 0 8.5 -1t7.5 -1q65 0 123 36q54 34 54 108q0 58 -40 96q-38 39 -102 39q-63 0 -102 -39q-42 -40 -54 -116l-105 19q19 106 88 165
q70 58 171 58q74 0 129 -30q61 -32 92 -82q31 -51 31 -112q0 -56 -30 -102q-29 -46 -89 -72q77 -19 119 -73q42 -55 42 -139q0 -113 -82 -191q-83 -79 -207 -79q-112 0 -189 68q-77 69 -85 175zM1966 -421h-82v2048h82v-2048z" />
    <glyph glyph-name="Ocircumflex" unicode="&#xd4;" 
d="M1966 -421h-82v2048h82v-2048zM846 163v211h-382v98l402 571h89v-571h119v-98h-119v-211h-109zM846 472v397l-275 -397h275z" />
    <glyph glyph-name="Otilde" unicode="&#xd5;" 
d="M1966 -421h-82v2048h82v-2048zM490 407l114 10q12 -83 58 -124q47 -42 110 -42q78 0 132 59q54 58 54 156q0 91 -51 145q-51 53 -136 53q-54 0 -94.5 -24t-66.5 -61l-100 13l85 451h437v-103h-351l-48 -235q79 54 167 54q114 0 193 -79t79 -204q0 -121 -69 -207
q-85 -106 -231 -106q-120 0 -195 67q-77 68 -87 177z" />
    <glyph glyph-name="Odieresis" unicode="&#xd6;" 
d="M1966 -421h-82v2048h82v-2048zM1056 828l-105 -9q-15 64 -39 90q-42 46 -106 46q-49 0 -89 -29q-51 -37 -79 -106q-29 -69 -30 -199q37 58 94 87q58 28 115 28q108 0 180 -78q74 -80 74 -201q0 -79 -35 -150q-34 -71 -96 -107q-63 -37 -138 -37q-133 0 -216 97
q-82 97 -82 320q0 250 91 363q80 98 217 98q105 0 167 -56q63 -58 77 -157zM625 457q0 -57 23 -105q22 -50 64 -76q41 -26 88 -26q66 0 115 54q48 53 48 147q0 89 -48 140q-48 52 -119 52q-73 0 -122 -52q-49 -51 -49 -134z" />
    <glyph glyph-name="multiply" unicode="&#xd7;" 
d="M1966 -421h-82v2048h82v-2048zM495 938v105h577v-85q-88 -95 -169 -241q-82 -148 -129 -308q-34 -117 -42 -246h-112q1 106 40 254q39 146 114 288q71 133 158 233h-437z" />
    <glyph glyph-name="Oslash" unicode="&#xd8;" 
d="M1966 -421h-82v2048h82v-2048zM667 645q-65 23 -97 68q-32 44 -32 107q0 93 68 159q66 64 180 64q110 0 181 -66q69 -64 69 -159q0 -57 -32 -105q-31 -45 -95 -68q78 -25 120 -83q42 -56 42 -138q0 -110 -78 -186q-79 -75 -206 -75q-126 0 -205 75q-78 75 -78 189
q0 85 42 141q39 54 121 77zM646 824q0 -60 40 -100q40 -38 102 -38q59 0 100 38q39 37 39 95t-41 97q-39 40 -99 40q-63 0 -101 -39q-40 -39 -40 -93zM612 427q0 -44 21 -88q21 -42 64 -66q42 -23 91 -23q77 0 126 49q49 50 49 124q0 76 -51 126t-128 50q-76 0 -123 -49
q-49 -51 -49 -123z" />
    <glyph glyph-name="Ugrave" unicode="&#xd9;" 
d="M1966 1627v-82h82v-82h-164v164h82z" />
    <glyph glyph-name="Uacute" unicode="&#xda;" 
d="M0 1463v82h2048v-82h-2048z" />
    <glyph glyph-name="Ucircumflex" unicode="&#xdb;" 
d="M82 1627h82v-164h-164v82h82v82z" />
    <glyph glyph-name="agrave" unicode="&#xe0;" 
d="M768 262q-5 -39 -26 -82h564q-18 36 -26 82h-512zM1263 335l46 73q-142 49 -285 47q-144 2 -285 -47l46 -73q118 40 239 38q120 2 239 -38zM831 108h-207q67 116 72 229q-114 119 -162 223.5t-6 223.5q33 96 118 189.5t312 246.5q-17 11 -46 36t-29 79q0 58 41 96t100 38
q58 0 99.5 -38t41.5 -96q0 -54 -29.5 -79t-45.5 -36q226 -153 311 -246.5t119 -189.5q42 -119 -6 -223.5t-162 -223.5q4 -113 72 -229h-207q-2 4 10 -16q33 -53 70 -60t89 -7h250q76 0 141.5 -62t65.5 -179h-495q-123 0 -223.5 84.5t-100.5 198.5q0 -114 -101 -198.5
t-223 -84.5h-495q0 117 65 179t142 62h250q51 0 88 7t71 60q12 20 10 16zM977 809h-95v-89h95v-165h94v165h95v89h-95v104h-94v-104z" />
    <glyph glyph-name="aacute" unicode="&#xe1;" 
d="M768 262q-5 -39 -26 -82h564q-18 36 -26 82h-512zM1263 335l46 73q-142 49 -285 47q-144 2 -285 -47l46 -73q118 40 239 38q120 2 239 -38zM831 108h-207q67 116 72 229q-114 119 -162 223.5t-6 223.5q33 96 118 189.5t312 246.5q-17 11 -46 36t-29 79q0 58 41 96t100 38
q58 0 99.5 -38t41.5 -96q0 -54 -29.5 -79t-45.5 -36q226 -153 311 -246.5t119 -189.5q42 -119 -6 -223.5t-162 -223.5q4 -113 72 -229h-207q-2 4 10 -16q33 -53 70 -60t89 -7h250q76 0 141.5 -62t65.5 -179h-495q-123 0 -223.5 84.5t-100.5 198.5q0 -114 -101 -198.5
t-223 -84.5h-495q0 117 65 179t142 62h250q51 0 88 7t71 60q12 20 10 16zM977 809h-95v-89h95v-165h94v165h95v89h-95v104h-94v-104zM727 1301l326 326h-58l-297 -297zM698 1330l-698 -698v-58l727 727zM246 -293h58l-129 -128h-58zM1527 931l-22 35l543 544v-58zM538 -293
h58l-128 -128h-58zM1590 701v58l458 458v-58zM831 -293h58l-128 -128h-58zM1441 260l-11 47l618 617v-58zM1123 -293h58l-128 -128h-58zM1578 105l-64 -7l534 534v-58zM1416 -293h58l-129 -128h-58zM1809 43l-32 25l271 272v-58zM1708 -293h58l-128 -128h-58zM1909 -150
l-12 46l151 151v-58zM1873 -421l175 175v-58l-117 -117h-58zM159 -86l-22 -81l-137 -137v58zM613 310l-203 -203l-66 -8l241 240zM1390 1086l-31 27l514 514h58zM473 519l17 -40l-490 -490v58zM1226 1215l-32 26l386 386h58zM455 794l-17 -75l-438 -437v58zM1170 1452
l-31 27l148 148h58zM761 1627l-761 -761v58l703 703h58zM468 1627l-468 -468v58l410 410h58zM175 1627l-175 -175v58l117 117h58z" />
    <glyph glyph-name="acircumflex" unicode="&#xe2;" 
d="M502 759l-52 -1l-26 -64l69 -21l46 55zM1038 946q34 -1 -16 68t-80 42l-116 -109zM700 1044q6 39 115.5 107.5t220.5 143.5l115 154l96 -217q342 -172 432.5 -417.5t47.5 -603.5q-18 -128 4.5 -236t57.5 -190l-1242 -1q-9 178 39 301.5t183 237.5q50 11 82.5 39.5
t53.5 58.5l63 1q62 1 137.5 29t139 97t66.5 207q0 17 -8.5 34t-11.5 37q-62 -228 -161 -288.5t-191 -58.5q-236 42 -292 -60q-56 -101 -56 -102l-217 121l115 82l-51 50l-122 -86l-12 297zM1681 -148q-102 130 -85 308.5t27 362.5t-50 351.5t-316 275.5q220 -164 252.5 -342
t16.5 -350.5t-12 -329t167 -276.5z" />
    <glyph glyph-name="atilde" unicode="&#xe3;" 
d="M698 1330l-698 -698v-58l727 727zM727 1301l326 326h-58l-297 -297zM1681 -148q-102 130 -85 308.5t27 362.5t-50 351.5t-316 275.5q220 -164 252.5 -342t16.5 -350.5t-12 -329t167 -276.5zM700 1044q6 39 115.5 107.5t220.5 143.5l115 154l96 -217
q342 -172 432.5 -417.5t47.5 -603.5q-18 -128 4.5 -236t57.5 -190l-1242 -1q-9 178 39 301.5t183 237.5q50 11 82.5 39.5t53.5 58.5l63 1q62 1 137.5 29t139 97t66.5 207q0 17 -8.5 34t-11.5 37q-62 -228 -161 -288.5t-191 -58.5q-236 42 -292 -60q-56 -101 -56 -102
l-217 121l115 82l-51 50l-122 -86l-12 297zM1038 946q34 -1 -16 68t-80 42l-116 -109zM502 759l-52 -1l-26 -64l69 -21l46 55zM473 -65l-356 -356h58l294 294zM1635 1038l-28 31l441 441v-58zM538 -293h58l-128 -128h-58zM1747 858l-19 40l320 319v-58zM1811 629l-9 50
l246 245v-58zM831 -293h58l-128 -128h-58zM1818 344l3 61l227 227v-58zM1123 -293h58l-128 -128h-58zM1802 36l-3 55l249 249v-58zM1416 -293h58l-129 -128h-58zM1864 -195l-18 40l202 202v-58zM1708 -293h58l-128 -128h-58zM1873 -421l175 175v-58l-117 -117h-58zM516 271
l38 -21l-554 -554v58zM1482 1179l-34 24l425 424h58zM327 374l38 -21l-365 -364v58zM1304 1293l-18 40l294 294h58zM235 575l3 -56l-238 -237v58zM1216 1497l-30 28l101 102h58zM761 1627l-761 -761v58l703 703h58zM468 1627l-468 -468v58l410 410h58zM175 1627l-175 -175
v58l117 117h58z" />
    <glyph glyph-name="adieresis" unicode="&#xe4;" 
d="M1024 -216h-641l29 264l159 118l50 659l-149 107l-17 341h289v-147h137v147h143h143v-147h137v147h289l-17 -341l-149 -107l50 -659l159 -118l29 -264h-641zM1024 773h333l-6 88h-327h-327l-6 -88h333zM1024 126h381l-6 87h-375h-375l-6 -87h381z" />
    <glyph glyph-name="aring" unicode="&#xe5;" 
d="M175 1627l-175 -175v58l117 117h58zM468 1627l-468 -468v58l410 410h58zM483 1350h-58l278 277h58zM375 1300l-375 -376v-58l378 379zM776 1350h-58l277 277h58zM391 1023l3 -55l-394 -394v58zM1068 1350h-57l276 277h58zM487 826l34 -24l-521 -520v58zM1361 1350h-58
l277 277h58zM526 573l-5 -63l-521 -521v58zM1654 1350h-58l277 277h58zM500 255l-500 -501v-58l321 321zM1873 -421l175 175v-58l-117 -117h-58zM1580 -421l468 468v-58l-410 -410h-58zM1723 -43l-6 51l331 332v-58zM1416 -293h58l-129 -128h-58zM1626 152l-34 25l456 455
v-58zM1123 -293h58l-128 -128h-58zM1539 358l-4 54l513 512v-58zM831 -293h58l-128 -128h-58zM1519 630l-4 54l533 533v-58zM538 -293h58l-128 -128h-58zM1660 1063l3 62l385 385v-58zM306 -232l-189 -189h58l129 128zM1024 -216h-641l29 264l159 118l50 659l-149 107
l-17 341h289v-147h137v147h143h143v-147h137v147h289l-17 -341l-149 -107l50 -659l159 -118l29 -264h-641zM1024 773h333l-6 88h-327h-327l-6 -88h333zM1024 126h381l-6 87h-375h-375l-6 -87h381z" />
    <glyph glyph-name="ae" unicode="&#xe6;" 
d="M590 108q4 -72 -15 -158l134 86zM1024 -216h-583q114 231 57.5 456.5t-202.5 449.5q-12 -2 -19 -2q-54 0 -92.5 38.5t-38.5 92.5t38.5 92.5t92.5 38.5t92.5 -38.5t38.5 -92.5q0 -20 -6 -38q-4 -14 -15 -33l196 -139l100 486q-64 31 -72 103q-5 44 29 91t88 53
q54 5 96 -29t48 -88q7 -68 -46 -114l198 -412l198 412q-54 46 -46 114q6 54 48 88t96 29q54 -6 87.5 -53t29.5 -91q-9 -72 -72 -103l100 -486l196 139q-12 19 -15 33q-6 18 -6 38q0 54 38.5 92.5t92.5 38.5t92.5 -38.5t38.5 -92.5t-38.5 -92.5t-92.5 -38.5q-7 0 -19 2
q-147 -224 -203 -449.5t58 -456.5h-583zM1024 234q109 0 222 -28.5t213 -67.5q2 41 11 89q-108 42 -221.5 68t-224.5 26t-225 -26t-221 -68q8 -48 11 -89q99 39 212 67.5t223 28.5zM1024 -142h478q-15 34 -24 73h-454h-454q-10 -39 -24 -73h478zM1458 108l-119 -72l134 -86
q-20 86 -15 158zM885 61l139 -87l139 84l-139 86z" />
    <glyph glyph-name="ccedilla" unicode="&#xe7;" 
d="M487 769l-2 55l82 82l-18 -76zM559 1133l-153 -153l-39 19l174 173zM97 729l19 -39l-116 -116v58zM387 -152l-270 -269h58l191 191zM1485 888l-10 49l573 573v-58zM538 -293h58l-128 -128h-58zM1885 996l-43 15l206 206v-58zM1978 797v58l70 69v-58zM831 -293h58
l-128 -128h-58zM1123 -293h58l-128 -128h-58zM1612 139l9 66l427 427v-58zM1416 -293h58l-129 -128h-58zM1645 -121l-13 45l416 416v-58zM1580 -421l468 468v-58l-410 -410h-58zM1873 -421l175 175v-58l-117 -117h-58zM430 184l5 -53l-435 -435v58zM1516 1212l-9 49l366 366
h58zM363 409l16 -41l-379 -379v58zM980 968l-19 39l145 146l8 -50zM1404 1393l-39 19l215 215h58zM261 600l22 -36l-283 -282v58zM946 1227l-9 49l350 351h58zM825 1399l-45 13l215 215h58zM761 1627l-761 -761v58l703 703h58zM468 1627l-468 -468v58l410 410h58zM175 1627
l-175 -175v58l117 117h58zM590 108q4 -72 -15 -158l134 86zM1024 -216h-583q114 231 57.5 456.5t-202.5 449.5q-12 -2 -19 -2q-54 0 -92.5 38.5t-38.5 92.5t38.5 92.5t92.5 38.5t92.5 -38.5t38.5 -92.5q0 -20 -6 -38q-4 -14 -15 -33l196 -139l100 486q-64 31 -72 103
q-5 44 29 91t88 53q54 5 96 -29t48 -88q7 -68 -46 -114l198 -412l198 412q-54 46 -46 114q6 54 48 88t96 29q54 -6 87.5 -53t29.5 -91q-9 -72 -72 -103l100 -486l196 139q-12 19 -15 33q-6 18 -6 38q0 54 38.5 92.5t92.5 38.5t92.5 -38.5t38.5 -92.5t-38.5 -92.5
t-92.5 -38.5q-7 0 -19 2q-147 -224 -203 -449.5t58 -456.5h-583zM1024 234q109 0 222 -28.5t213 -67.5q2 41 11 89q-108 42 -221.5 68t-224.5 26t-225 -26t-221 -68q8 -48 11 -89q99 39 212 67.5t223 28.5zM1024 -142h478q-15 34 -24 73h-454h-454q-10 -39 -24 -73h478z
M1458 108l-119 -72l134 -86q-20 86 -15 158zM885 61l139 -87l139 84l-139 86z" />
    <glyph glyph-name="egrave" unicode="&#xe8;" 
d="M1024 -142h489l-12 73h-477h-477l-12 -73h489zM1024 779q-25 60 -62 111q31 48 62 65q30 -17 62 -65q-38 -51 -62 -111zM927 325q-154 -11 -303 -58q-123 108 -200 213.5t-77 201.5q0 89 73.5 159t148.5 70q67 0 134.5 -62.5t102.5 -130.5q30 -54 75 -175t46 -218z
M577 108l-26 -156l145 84zM1024 1015q-47 0 -136 -121q-31 36 -50 55q93 140 186 140q92 0 186 -140q-20 -19 -50 -55q-90 121 -136 121zM1024 240q-1 126 -42 267.5t-84 226.5q-8 14 -14 27t-12 23q-28 43 -48 69q-51 63 -120 105t-134 42q-103 0 -208 -93t-105 -229
q0 -120 99 -254.5t249 -259.5q201 74 419 76zM1024 -216h-576l61 365q-325 280 -326 535q-1 159 125 274.5t267 115.5q78 0 158.5 -47t142.5 -119q61 -74 98.5 -164.5t49.5 -150.5q12 60 49 150.5t99 164.5q61 72 142 119t159 47q140 0 266 -115.5t126 -274.5
q-2 -255 -326 -535l61 -365h-576zM1121 325q0 97 45 218t76 175q34 68 101.5 130.5t135.5 62.5q74 0 147.5 -70t74.5 -159q0 -96 -77 -201.5t-200 -213.5q-150 47 -303 58zM1471 108l-119 -72l145 -84zM1024 240q217 -2 419 -76q150 125 249 259.5t99 254.5
q0 136 -105.5 229t-207.5 93q-66 0 -135 -42t-119 -105q-21 -26 -48 -69q-6 -10 -12.5 -23l-13.5 -27q-44 -85 -85 -226.5t-41 -267.5zM885 81l139 -86l139 84l-139 86zM977 1329v95h94v-95h107v-95h-107v-153q-48 16 -94 0v153h-107v95h107z" />
    <glyph glyph-name="eacute" unicode="&#xe9;" 
d="M1689 1093l-40 18l399 399v-58zM381 -157l-264 -264h58l195 194zM1845 956l-27 31l230 230v-58zM538 -293h58l-128 -128h-58zM1936 754l-9 50l121 120v-58zM831 -293h58l-128 -128h-58zM1848 374l53 111l147 147v-58zM1123 -293h58l-128 -128h-58zM1662 -104l-8 49
l394 395v-58zM1416 -293h58l-129 -128h-58zM1580 -421l468 468v-58l-410 -410h-58zM1873 -421l175 175v-58l-117 -117h-58zM1455 1151l-73 -15l491 491h58zM395 149l30 -28l-425 -425v58zM1272 1261v58l308 308h58zM257 304l25 -33l-282 -282v58zM1161 1443l-29 29l155 155
h58zM150 489l16 -41l-166 -166v58zM580 1154l-64 -7l479 480h58zM110 742l-8 -66l-102 -102v58zM761 1627l-761 -761v58l703 703h58zM468 1627l-468 -468v58l410 410h58zM175 1627l-175 -175v58l117 117h58zM1024 -142h489l-12 73h-477h-477l-12 -73h489zM1024 779
q-25 60 -62 111q31 48 62 65q30 -17 62 -65q-38 -51 -62 -111zM927 325q-154 -11 -303 -58q-123 108 -200 213.5t-77 201.5q0 89 73.5 159t148.5 70q67 0 134.5 -62.5t102.5 -130.5q30 -54 75 -175t46 -218zM577 108l-26 -156l145 84zM1024 1015q-47 0 -136 -121
q-31 36 -50 55q93 140 186 140q92 0 186 -140q-20 -19 -50 -55q-90 121 -136 121zM1024 240q-1 126 -42 267.5t-84 226.5q-8 14 -14 27t-12 23q-28 43 -48 69q-51 63 -120 105t-134 42q-103 0 -208 -93t-105 -229q0 -120 99 -254.5t249 -259.5q201 74 419 76zM1024 -216
h-576l61 365q-325 280 -326 535q-1 159 125 274.5t267 115.5q78 0 158.5 -47t142.5 -119q61 -74 98.5 -164.5t49.5 -150.5q12 60 49 150.5t99 164.5q61 72 142 119t159 47q140 0 266 -115.5t126 -274.5q-2 -255 -326 -535l61 -365h-576zM1121 325q0 97 45 218t76 175
q34 68 101.5 130.5t135.5 62.5q74 0 147.5 -70t74.5 -159q0 -96 -77 -201.5t-200 -213.5q-150 47 -303 58zM1471 108l-119 -72l145 -84zM1024 240q217 -2 419 -76q150 125 249 259.5t99 254.5q0 136 -105.5 229t-207.5 93q-66 0 -135 -42t-119 -105q-21 -26 -48 -69
q-6 -10 -12.5 -23l-13.5 -27q-44 -85 -85 -226.5t-41 -267.5zM885 81l139 -86l139 84l-139 86zM977 1329h-107v-95h107v-153q46 16 94 0v153h107v95h-107v95h-94v-95z" />
    <glyph glyph-name="ecircumflex" unicode="&#xea;" 
d="M1024 -216h-578v74q-4 80 41.5 137t125.5 108q117 91 171.5 217.5t78.5 267.5h-287l284 239q-86 74 -86 188q0 103 73 177t177 74q103 0 176.5 -74t73.5 -177q0 -114 -86 -188l284 -239h-287q23 -141 78 -267.5t172 -217.5q79 -51 124.5 -108t42.5 -137v-74h-578z" />
    <glyph glyph-name="edieresis" unicode="&#xeb;" 
d="M175 1627l-175 -175v58l117 117h58zM468 1627l-468 -468v58l410 410h58zM761 1627l-761 -761v58l703 703h58zM1053 1627l-1053 -1053v58l995 995h58zM1060 1341l-61 -2l288 288h58zM700 1039l-700 -699v-58l700 699v58zM1255 1244l-31 27l356 356h58zM506 553l59 1
l-565 -565v58zM1349 1045l-8 50l532 532h58zM768 523l-21 -79l-747 -748v58zM1873 -421l175 175v-58l-117 -117h-58zM1580 -421l468 468v-58l-410 -410h-58zM1677 -90l-11 47l382 383v-58zM1416 -293h58l-129 -128h-58zM1570 96l-31 27l509 509v-58zM1123 -293h58l-128 -128
h-58zM1412 230l-26 32l662 662v-58zM831 -293h58l-128 -128h-58zM1529 640l-32 26l551 551v-58zM1341 511h58l-92 -93l-14 44zM538 -293h58l-128 -128h-58zM1370 774l-31 26l709 710v-58zM369 -169v-58l-194 -194h-58zM1024 -216h-578v74q-4 80 41.5 137t125.5 108
q117 91 171.5 217.5t78.5 267.5h-287l284 239q-86 74 -86 188q0 103 73 177t177 74q103 0 176.5 -74t73.5 -177q0 -114 -86 -188l284 -239h-287q23 -141 78 -267.5t172 -217.5q79 -51 124.5 -108t42.5 -137v-74h-578z" />
    <glyph glyph-name="eth" unicode="&#xf0;" 
d="M164 -421h-82v2048h82v-2048zM828 125q13 49 97 91l71 37q69 36 80 47q13 11 30 53q18 -42 30 -53q10 -11 80 -47l71 -37q83 -42 97 -91q-102 -52 -278 -52q-177 0 -278 52zM873 911q120 -75 233 -75q114 0 234 75q-26 -39 -89 -106l-67 -73q-43 -48 -55 -68
q-11 -23 -16 -72q-2 -21 -7 -49q-6 28 -7 49q-8 55 -17 72q-10 19 -54 68l-67 73q-66 70 -88 106zM788 1071v-77q0 -57 16 -86q17 -33 83 -102l91 -97q68 -76 68 -105q0 -32 -63 -99l-104 -112q-62 -66 -76 -98q-15 -32 -15 -97v-58q0 -53 38 -73q92 -50 280 -50
q187 0 280 50q38 20 38 73v58q0 65 -15 97t-76 98l-105 112q-62 68 -62 102q0 27 69 102l90 97q65 69 83 102q16 29 16 86v77q-111 -70 -318 -70q-102 0 -183 17q-79 17 -135 53zM1106 1040q112 0 205 25q94 25 93 54q-2 30 -87 50q-87 20 -211 20q-126 0 -213 -20
q-85 -21 -85 -51q0 -29 95 -53q92 -25 203 -25zM748 127v61q0 77 20 124q18 42 82 111l106 113q51 52 51 69t-62 81l-106 109q-54 55 -72 102q-19 45 -19 129v66q0 67 90 102q91 35 268 35q357 0 357 -137v-66q0 -83 -18 -129q-18 -47 -72 -102l-106 -109q-61 -63 -61 -81
t50 -69l106 -113q60 -65 82 -111q19 -44 19 -124v-61q0 -75 -91 -112q-92 -38 -266 -38q-175 0 -267 38q-91 37 -91 112z" />
    <glyph glyph-name="ntilde" unicode="&#xf1;" 
d="M1190 331q-63 -25 -196 -46q-71 -10 -104 -23q-31 -14 -47 -39q-16 -27 -16 -56q0 -48 36 -80q37 -32 106 -32t123 31q52 28 79 82q19 42 19 119v44zM1200 64q-63 -54 -127 -80q-65 -23 -133 -23q-116 0 -178 57q-62 56 -62 146q0 51 23 94q24 44 62 69q41 26 86 39
q45 10 106 18q133 15 213 40v20v12q0 72 -34 104q-44 40 -135 40q-86 0 -125 -30q-41 -32 -60 -105l-116 16q16 74 53 122q34 44 105 71q69 25 160 25t147 -22q58 -22 82 -53q27 -32 38 -82q7 -34 7 -109v-160q0 -175 6 -210q8 -48 30 -85h-124q-19 36 -24 86zM0 1463v82
h2048v-82h-2048z" />
    <glyph glyph-name="ograve" unicode="&#xf2;" 
d="M0 1463v82h2048v-82h-2048zM828 -22h-110v976h120v-349q74 96 193 96q66 0 124 -27q56 -26 96 -74q34 -43 58 -115q21 -65 21 -143q0 -184 -89 -281q-90 -100 -216 -100q-127 0 -197 104v-87zM827 337q0 -127 35 -184q57 -93 154 -93q76 0 135 69q57 66 57 202
q0 142 -54 205q-57 67 -134 67q-78 0 -135 -69q-58 -69 -58 -197z" />
    <glyph glyph-name="oacute" unicode="&#xf3;" 
d="M0 1463v82h2048v-82h-2048zM1213 252l117 -14q-18 -120 -98 -191q-80 -69 -194 -69q-144 0 -233 95q-87 93 -87 271q0 118 36 200t116 128q74 44 168 44q116 0 188 -58q73 -60 94 -165l-116 -19q-17 70 -60 108q-42 35 -101 35q-93 0 -147 -65q-56 -66 -56 -205
q0 -144 54 -205q56 -65 142 -65q72 0 118 43q46 42 59 132z" />
    <glyph glyph-name="ocircumflex" unicode="&#xf4;" 
d="M0 1463v82h2048v-82h-2048zM1218 -22v89q-67 -105 -197 -105q-82 0 -154 46q-69 45 -109 129q-39 84 -39 192q0 105 35 192t105 132q73 46 157 46q63 0 113 -27q49 -26 81 -70v348h119v-972h-111zM842 329q0 -134 56 -202q56 -67 134 -67q80 0 134 64q55 65 55 196
q0 141 -57 212q-54 67 -136 67q-80 0 -134 -65q-52 -64 -52 -205z" />
    <glyph glyph-name="otilde" unicode="&#xf5;" 
d="M0 1463v82h2048v-82h-2048zM1221 221l124 -14q-32 -114 -108 -169q-81 -60 -202 -60q-155 0 -246 96q-90 96 -90 268q0 176 91 275t238 99q140 0 231 -96q90 -98 90 -272q0 -17 -1 -32h-525q5 -115 66 -177t146 -62q67 0 113 34q46 33 73 110zM830 414h392q-8 90 -44 134
q-57 69 -149 69q-83 0 -137 -54q-57 -57 -62 -149z" />
    <glyph glyph-name="odieresis" unicode="&#xf6;" 
d="M0 1463v82h2048v-82h-2048zM923 -22v615h-107v95h107v74q0 67 13 107q16 44 61 75q44 30 123 30q48 0 112 -12l-19 -105q-31 6 -70 6q-56 0 -79 -23q-21 -22 -21 -87v-65h138v-95h-138v-615h-120z" />
    <glyph glyph-name="divide" unicode="&#xf7;" 
d="M0 1463v82h2048v-82h-2048zM736 -82l117 -16q8 -57 40 -80q45 -32 123 -32q83 0 128 32q44 32 61 93q9 34 9 154q-79 -92 -195 -92q-146 0 -227 106q-80 105 -80 252q0 98 37 187q34 84 106 133q68 46 164 46q125 0 206 -101v85h111v-612q0 -167 -34 -235
q-35 -69 -107 -108q-75 -40 -179 -40q-123 0 -204 57q-81 56 -76 171zM835 343q0 -139 55 -202q57 -65 139 -65q83 0 139 65q56 63 56 198q0 131 -58 197q-57 65 -139 65q-81 0 -135 -65q-57 -67 -57 -193z" />
    <glyph glyph-name="oslash" unicode="&#xf8;" 
d="M0 1463v82h2048v-82h-2048zM730 -22v997h123v-357q83 98 216 98q82 0 139 -31q59 -33 85 -88q25 -54 25 -162v-457h-123v457q0 92 -39 134q-42 43 -113 43q-50 0 -101 -30q-50 -28 -69 -75q-20 -49 -20 -134v-395h-123z" />
    <glyph glyph-name="ugrave" unicode="&#xf9;" 
d="M1966 -421v82h82v82h-164v-164h82z" />
    <glyph glyph-name="uacute" unicode="&#xfa;" 
d="M0 -339v82h2048v-82h-2048z" />
    <glyph glyph-name="ucircumflex" unicode="&#xfb;" 
d="M82 -421v82h-82v82h164v-164h-82z" />
    <glyph glyph-name="endash" unicode="&#x2013;" horiz-adv-x="1150" 
d="M861 575v167h-861v-167h861z" />
    <glyph glyph-name="emdash" unicode="&#x2014;" horiz-adv-x="1834" 
d="M1600 583v160h-1600v-160h1600z" />
    <glyph glyph-name="quotedblleft" unicode="&#x201c;" 
d="M1966 -421h-82v2048h82v-2048zM1775 -421h-137v2048h137v-2048zM1072 266v-103h-579q0 38 13 74q23 61 71 118q44 52 140 132q143 117 193 186q51 68 51 129q0 65 -46 108q-47 45 -120 45q-75 0 -123 -47q-47 -47 -48 -130l-111 12q11 125 85 189q76 64 200 64t200 -70
q73 -69 73 -173q0 -53 -21 -103t-71 -107q-53 -60 -167 -155q-78 -65 -124 -110q-27 -28 -45 -59h429z" />
    <glyph glyph-name="quotedblright" unicode="&#x201d;" 
d="M1966 -421h-82v2048h82v-2048zM1775 -421h-137v2048h137v-2048zM1072 266v-103h-579q0 38 13 74q23 61 71 118q44 52 140 132q143 117 193 186q51 68 51 129q0 65 -46 108q-47 45 -120 45q-75 0 -123 -47q-47 -47 -48 -130l-111 12q11 125 85 189q76 64 200 64t200 -70
q73 -69 73 -173q0 -53 -21 -103t-71 -107q-53 -60 -167 -155q-78 -65 -124 -110q-27 -28 -45 -59h429z" />
    <glyph glyph-name="quotedblbase" unicode="&#x201e;" 
d="M1966 -421h-82v2048h82v-2048zM1775 -421h-137v2048h137v-2048zM1072 266v-103h-579q0 38 13 74q23 61 71 118q44 52 140 132q143 117 193 186q51 68 51 129q0 65 -46 108q-47 45 -120 45q-75 0 -123 -47q-47 -47 -48 -130l-111 12q11 125 85 189q76 64 200 64t200 -70
q73 -69 73 -173q0 -53 -21 -103t-71 -107q-53 -60 -167 -155q-78 -65 -124 -110q-27 -28 -45 -59h429z" />
  </font>
</defs>
</svg>
